<svg xmlns="http://www.w3.org/2000/svg" version="1.1" xmlns:xlink="http://www.w3.org/1999/xlink" width="512" height="512" x="0" y="0" viewBox="0 0 64 64" style="enable-background:new 0 0 512 512" xml:space="preserve" class=""><g><path d="M58.5 5.956H48v-3a1 1 0 1 0-2 0v3H18v-3a1 1 0 0 0-2 0v3H5.5a3.5 3.5 0 0 0 0 7H8V60.04a2 2 0 0 0 3.14 1.642l19.753-13.738a11.907 11.907 0 0 0 2.214 0l19.751 13.737A2 2 0 0 0 56 60.04V12.956h2.5a3.5 3.5 0 0 0 0-7zM17.478 31.478A14.538 14.538 0 0 1 32 16.956c19.266.798 19.26 28.25 0 29.044a14.539 14.539 0 0 1-14.522-14.522zm18.49 16.02a16.537 16.537 0 0 0 12.554-16.02c-.907-21.919-32.14-21.912-33.044 0a16.537 16.537 0 0 0 12.553 16.02L14 57.258v-9.302a1 1 0 0 0-2 0V58.65l-2 1.391V12.96h40v9.996a1 1 0 1 0 2 0V12.96h2l.001 47.08zM58.5 10.956h-53a1.5 1.5 0 0 1 0-3h53a1.5 1.5 0 0 1 0 3z" fill="#fccc64" opacity="1" data-original="#000000" class=""></path><path d="M42.404 28.865a2.193 2.193 0 0 0-1.466-1.427l-4.485-1.32-2.643-3.858a2.194 2.194 0 0 0-3.62 0l-2.643 3.857-4.485 1.321a2.194 2.194 0 0 0-1.119 3.443l2.852 3.706-.129 4.674a2.194 2.194 0 0 0 2.928 2.128L32 39.822l4.406 1.567a2.194 2.194 0 0 0 2.928-2.128l-.129-4.674 2.852-3.706a2.191 2.191 0 0 0 .347-2.016zm-1.932.797-3.069 3.987a.999.999 0 0 0-.207.637l.139 5.03a.189.189 0 0 1-.26.188l-4.74-1.686a1.01 1.01 0 0 0-.67 0l-4.74 1.686a.188.188 0 0 1-.26-.189l.139-5.029a.999.999 0 0 0-.207-.637l-3.069-3.987a.19.19 0 0 1 .1-.306l4.826-1.421a.997.997 0 0 0 .542-.394l2.844-4.15a.188.188 0 0 1 .32 0l2.844 4.15a.997.997 0 0 0 .542.394l4.827 1.421a.19.19 0 0 1 .099.306zM51 24.96a1 1 0 0 0 0 2 1 1 0 0 0 0-2zM13 43.96a1 1 0 0 0 0 2 1 1 0 0 0 0-2z" fill="#fccc64" opacity="1" data-original="#000000" class=""></path></g></svg>